<svg xmlns="http://www.w3.org/2000/svg" enable-background="new 0 0 128 128" viewBox="0 0 128 128"><circle cx="64" cy="64" r="55" fill="#F7F7FB"/><path fill="#0C0F13" d="M64,9c-2.3,0-4.6,0.2-6.9,0.4C84.3,12.8,105.2,36,105.2,64s-21,51.2-48.1,54.6c2.3,0.3,4.5,0.4,6.9,0.4      c30.4,0,55-24.6,55-55S94.4,9,64,9z" opacity=".2"/><path fill="#454B54" d="M64,122C32,122,6,96,6,64S32,6,64,6s58,26,58,58S96,122,64,122z M64,12c-28.7,0-52,23.3-52,52     s23.3,52,52,52s52-23.3,52-52S92.7,12,64,12z"/><path fill="#A7B1C6" d="M64,23.5c-21.5,0-39,17.4-39,39c0,7.9,2.4,15.3,6.4,21.4c7-10.6,18.9-17.5,32.5-17.5s25.6,7,32.5,17.5       c4.1-6.1,6.4-13.5,6.4-21.4C103,40.9,85.5,23.5,64,23.5z M64,59.8c-8.1,0-14.6-6.5-14.6-14.6c0-8.1,6.5-14.6,14.6-14.6       s14.6,6.5,14.6,14.6C78.6,53.2,72.1,59.8,64,59.8z"/><path fill="#454B54" d="M63.4 62.4c0 0-.1 0-.1 0-9-.4-16-7.7-16-16.7 0-9.2 7.5-16.8 16.8-16.8s16.8 7.5 16.8 16.8c0 8.7-6.8 16-15.5 16.7-.4 0-.7 0-1-.1C64 62.4 63.7 62.4 63.4 62.4zM64 34.9c-5.9 0-10.8 4.8-10.8 10.8 0 5.8 4.5 10.5 10.3 10.7.2 0 .4 0 .7.1.2-.1.4-.1.7-.1 5.6-.4 9.9-5.1 9.9-10.7C74.8 39.7 69.9 34.9 64 34.9zM94.6 85.1c-1 0-1.9-.5-2.5-1.3C85.9 74.3 75.3 68.6 64 68.6s-21.9 5.7-28.1 15.2c-.9 1.4-2.8 1.8-4.2.9-1.4-.9-1.8-2.8-.9-4.2C38.3 69.3 50.6 62.6 64 62.6s25.7 6.7 33.1 17.8c.9 1.4.5 3.2-.9 4.2C95.8 84.9 95.2 85.1 94.6 85.1z"/></svg>