<svg id="SvgjsSvg1080" width="288" height="288" xmlns="http://www.w3.org/2000/svg" version="1.1" xmlns:xlink="http://www.w3.org/1999/xlink" xmlns:svgjs="http://svgjs.com/svgjs"><defs id="SvgjsDefs1081"></defs><g id="SvgjsG1082"><svg xmlns="http://www.w3.org/2000/svg" width="288" height="288" fill-rule="evenodd" clip-rule="evenodd" image-rendering="optimizeQuality" shape-rendering="geometricPrecision" text-rendering="geometricPrecision" viewBox="0 0 6.827 6.827"><path fill="none" d="M0 0h6.827v6.827H0z"></path><path fill="none" d="M.853.853h5.12v5.12H.853z"></path><path fill="#ea3160" fill-rule="nonzero" d="M1.924 2.067l.798.825.028.06.207 1.805-.212.783-.06.219-.021.005-.308.069-.097.021-.025-.095-.68-2.546-.002-.045.121-.648.83 3.226.152-.029-.915-3.555.008-.042.037-.197z" class="color64b5f6 svgShape"></path><path fill="#424242" fill-rule="nonzero" d="M4.902 1.07l.157.63-1.739 4 .138.057 1.66-3.82.156.628-.005.066-1.42 3.257-.037.085-.088-.027-.404-.127-.403-.126-.095-.03.026-.095.922-3.414.021-.04.932-1.086.13-.151z" class="color424242 svgShape"></path><path fill="#424242" fill-rule="nonzero" d="M2.577 2.588l.132-1.51.02-.225.157.163 1.058 1.093-.148.144-.9-.93-.129 1.462z" class="color424242 svgShape"></path><path fill="none" d="M0 0h6.827v6.827H0z"></path></svg></g></svg>