<svg xmlns="http://www.w3.org/2000/svg" width="130" height="130" viewBox="0 0 130 130"><path fill="#97BFB5" d="M40.056 114.511l25.045-14.576 25.152 14.358L65.314 129z"/><path fill="#9B893B" d="M65.042 86.378l-7.4-4.345.115 27.726 7.335 4.271.058-.497z"/><path fill="#7F6F2D" d="M65.042 86.378l7.364-4.405.115 27.726-7.314 4.329-.057-.495z"/><path fill="#7F6F2D" d="M65.042 77.378l-7.4-4.345.115 27.726 7.335 4.271.058-.497z"/><path fill="#60531D" d="M65.042 77.378l7.364-4.405.115 27.726-7.314 4.329-.057-.495z"/><path fill="#16A877" d="M64.705 1l.396 98.935-43.007-24.413z"/><path fill="#1AC487" d="M64.705 1L41.791 86.704 22.094 75.522z"/><path fill="#109169" d="M64.705 1l.396 98.935 42.805-24.753z"/><path fill="#0B7C6E" d="M64.705 1l.396 98.935 30.562-45.776z"/><path fill="#19D88A" d="M64.985 71.904L64.705 1 34.171 54.405z"/><path fill="#12C483" d="M64.985 71.904L64.705 1 44.819 35.771z"/><path fill="#12C483" d="M64.705 1l.28 70.904 30.678-17.745z"/><path fill="#12C483" d="M64.705 1l.28 70.904 30.678-17.745z"/><path fill="#0FB280" d="M64.705 1l.28 70.904 10.781-51.912z"/><path fill="#2AF49D" d="M64.889 47.168L64.705 1 44.819 35.771z"/><path fill="#19D88A" d="M64.889 47.168L64.705 1 53.069 40.456z"/><path fill="#16A877" d="M64.889 47.168l.096 24.736 30.678-17.745-10.802-18.545z"/><path fill="#0B9674" d="M84.861 35.614L64.889 47.168l.096 24.736"/></svg>